<svg width="291" height="38" viewBox="0 0 291 38" fill="none" xmlns="http://www.w3.org/2000/svg">
<path d="M1.27078 37.1575C0.931902 37.1575 0.626916 37.0389 0.355817 36.8017C0.118606 36.5645 0 36.2595 0 35.8867V11.9961C0 11.6234 0.118606 11.3184 0.355817 11.0812C0.626916 10.844 0.931902 10.7253 1.27078 10.7253H5.99806C6.37082 10.7253 6.67581 10.844 6.91302 11.0812C7.15023 11.3184 7.26884 11.6234 7.26884 11.9961V13.7244C7.98047 12.7755 8.92932 11.9622 10.1154 11.2845C11.3353 10.6067 12.7755 10.2509 14.436 10.217C18.3331 10.1493 21.0271 11.6403 22.5181 14.6902C23.2976 13.3686 24.4158 12.3011 25.873 11.4878C27.3302 10.6406 28.9398 10.217 30.7019 10.217C32.4641 10.217 34.0568 10.6237 35.4801 11.437C36.9033 12.2164 38.0386 13.4363 38.8857 15.0968C39.7329 16.7234 40.1565 18.8244 40.1565 21.3999V35.8867C40.1565 36.2595 40.021 36.5645 39.7499 36.8017C39.5127 37.0389 39.2246 37.1575 38.8857 37.1575H33.8535C33.4807 37.1575 33.1757 37.0389 32.9385 36.8017C32.7013 36.5645 32.5827 36.2595 32.5827 35.8867V21.8065C32.5827 20.4171 32.3794 19.3327 31.9727 18.5533C31.6 17.7739 31.0747 17.2148 30.397 16.8759C29.7531 16.5031 29.0245 16.3168 28.2112 16.3168C27.4996 16.3168 26.8049 16.5031 26.1272 16.8759C25.4833 17.2148 24.9411 17.7739 24.5006 18.5533C24.0939 19.3327 23.8906 20.4171 23.8906 21.8065V35.8867C23.8906 36.2595 23.772 36.5645 23.5348 36.8017C23.2976 37.0389 23.0095 37.1575 22.6706 37.1575H17.6384C17.2656 37.1575 16.9606 37.0389 16.7234 36.8017C16.4862 36.5645 16.3676 36.2595 16.3676 35.8867V21.8065C16.3676 20.4171 16.1643 19.3327 15.7576 18.5533C15.351 17.7739 14.8088 17.2148 14.131 16.8759C13.4872 16.5031 12.7755 16.3168 11.9961 16.3168C11.2845 16.3168 10.5898 16.5031 9.91205 16.8759C9.26819 17.2148 8.72599 17.7739 8.28546 18.5533C7.87881 19.3327 7.67549 20.4002 7.67549 21.7557V35.8867C7.67549 36.2595 7.55688 36.5645 7.31967 36.8017C7.08246 37.0389 6.77747 37.1575 6.40471 37.1575H1.27078Z" fill="white"/>
<path d="M55.0591 37.6658C53.2631 37.6658 51.6535 37.3269 50.2302 36.6492C48.8069 35.9375 47.6717 34.9887 46.8245 33.8026C45.9773 32.6166 45.5537 31.295 45.5537 29.8378C45.5537 27.4318 46.5195 25.5341 48.4511 24.1447C50.4166 22.7554 52.992 21.8065 56.1774 21.2982L62.8363 20.3324V19.4175C62.8363 18.0958 62.5313 17.0792 61.9213 16.3676C61.3114 15.656 60.2439 15.3001 58.719 15.3001C57.6007 15.3001 56.7027 15.5204 56.0249 15.9609C55.3811 16.4015 54.8728 16.9776 54.5 17.6892C54.2289 18.1297 53.8223 18.35 53.2801 18.35H48.4511C48.0783 18.35 47.7903 18.2483 47.587 18.045C47.3837 17.8078 47.2989 17.5367 47.3328 17.2317C47.3328 16.6556 47.5531 15.9779 47.9936 15.1985C48.4342 14.4191 49.1119 13.6566 50.0269 12.9111C50.9418 12.1317 52.1109 11.4878 53.5342 10.9795C54.9914 10.4712 56.7366 10.217 58.7698 10.217C60.9047 10.217 62.7346 10.4712 64.2596 10.9795C65.7845 11.4878 67.0044 12.1994 67.9194 13.1144C68.8682 14.0294 69.546 15.0968 69.9526 16.3168C70.3932 17.5028 70.6134 18.7905 70.6134 20.1799V35.8867C70.6134 36.2595 70.4948 36.5645 70.2576 36.8017C70.0204 37.0389 69.7324 37.1575 69.3935 37.1575H64.3612C64.0224 37.1575 63.7343 37.0389 63.4971 36.8017C63.2599 36.5645 63.1413 36.2595 63.1413 35.8867V34.006C62.7007 34.6498 62.1077 35.2598 61.3622 35.8359C60.6167 36.3781 59.7187 36.8186 58.6681 37.1575C57.6515 37.4964 56.4485 37.6658 55.0591 37.6658ZM57.0924 32.3794C58.2107 32.3794 59.2104 32.1422 60.0914 31.6677C60.9725 31.1933 61.6672 30.4647 62.1755 29.482C62.6838 28.4993 62.938 27.2624 62.938 25.7713V24.9072L58.2107 25.6697C56.4146 25.9747 55.093 26.4321 54.2458 27.0421C53.3987 27.6521 52.9751 28.3976 52.9751 29.2787C52.9751 29.9225 53.1615 30.4817 53.5342 30.9561C53.9409 31.3966 54.4492 31.7525 55.0591 32.0236C55.703 32.2608 56.3808 32.3794 57.0924 32.3794Z" fill="white"/>
<path d="M79.0045 37.1575C78.6657 37.1575 78.3607 37.0389 78.0896 36.8017C77.8524 36.5645 77.7338 36.2595 77.7338 35.8867V11.9961C77.7338 11.6573 77.8524 11.3692 78.0896 11.132C78.3607 10.8609 78.6657 10.7253 79.0045 10.7253H83.986C84.3587 10.7253 84.6637 10.8609 84.9009 11.132C85.1381 11.3692 85.2567 11.6573 85.2567 11.9961V14.0294C86.1039 12.9789 87.1544 12.1656 88.4083 11.5895C89.6621 11.0134 91.0854 10.7253 92.6781 10.7253H94.8638C95.2366 10.7253 95.5416 10.844 95.7788 11.0812C96.016 11.3184 96.1346 11.6234 96.1346 11.9961V16.4184C96.1346 16.7573 96.016 17.0453 95.7788 17.2826C95.5416 17.5198 95.2366 17.6384 94.8638 17.6384H90.4415C88.9166 17.6384 87.7305 18.062 86.8833 18.9091C86.07 19.7563 85.6634 20.9254 85.6634 22.4165V35.8867C85.6634 36.2595 85.5278 36.5645 85.2567 36.8017C85.0195 37.0389 84.7315 37.1575 84.3926 37.1575H79.0045Z" fill="white"/>
<path d="M102.211 37.1575C101.839 37.1575 101.534 37.0389 101.296 36.8017C101.059 36.5645 100.941 36.2595 100.941 35.8867V2.33822C100.941 1.96546 101.059 1.66048 101.296 1.42327C101.534 1.18606 101.839 1.06745 102.211 1.06745H107.193C107.532 1.06745 107.82 1.18606 108.057 1.42327C108.328 1.66048 108.463 1.96546 108.463 2.33822V19.5191L116.241 11.5895C116.512 11.3523 116.749 11.1489 116.952 10.9795C117.189 10.8101 117.545 10.7253 118.02 10.7253H123.814C124.119 10.7253 124.374 10.844 124.577 11.0812C124.814 11.2845 124.933 11.5386 124.933 11.8436C124.933 11.9792 124.899 12.1317 124.831 12.3011C124.763 12.4705 124.645 12.6061 124.475 12.7078L114.665 22.569L125.746 35.2259C126.017 35.497 126.153 35.7681 126.153 36.0392C126.153 36.3442 126.051 36.6153 125.848 36.8525C125.644 37.0558 125.373 37.1575 125.034 37.1575H119.138C118.63 37.1575 118.257 37.0728 118.02 36.9033C117.816 36.7339 117.579 36.5306 117.308 36.2934L108.463 26.3305V35.8867C108.463 36.2595 108.328 36.5645 108.057 36.8017C107.82 37.0389 107.532 37.1575 107.193 37.1575H102.211Z" fill="white"/>
<path d="M141.399 37.6658C137.502 37.6658 134.402 36.5814 132.097 34.4126C129.827 32.2438 128.624 29.0923 128.488 24.958C128.488 24.6869 128.488 24.3311 128.488 23.8906C128.488 23.4162 128.488 23.0603 128.488 22.8231C128.624 20.1799 129.217 17.9264 130.267 16.0626C131.318 14.1649 132.792 12.7247 134.69 11.742C136.587 10.7253 138.807 10.217 141.348 10.217C144.229 10.217 146.618 10.8101 148.516 11.9961C150.413 13.1483 151.837 14.741 152.785 16.7742C153.768 18.7736 154.259 21.0779 154.259 23.6873V24.8564C154.259 25.1953 154.141 25.5002 153.904 25.7713C153.666 26.0085 153.361 26.1272 152.989 26.1272H136.418C136.418 26.1272 136.418 26.178 136.418 26.2796C136.418 26.3474 136.418 26.4152 136.418 26.483C136.452 27.5674 136.655 28.567 137.028 29.482C137.401 30.3631 137.943 31.0747 138.654 31.6169C139.4 32.1591 140.298 32.4302 141.348 32.4302C142.162 32.4302 142.839 32.3116 143.382 32.0744C143.924 31.8033 144.364 31.5152 144.703 31.2103C145.076 30.8714 145.347 30.5833 145.517 30.3461C145.822 29.9734 146.059 29.7531 146.228 29.6853C146.432 29.5837 146.72 29.5328 147.092 29.5328H152.48C152.785 29.5328 153.04 29.6345 153.243 29.8378C153.48 30.0411 153.582 30.2953 153.548 30.6003C153.514 31.1764 153.226 31.8711 152.684 32.6844C152.175 33.4638 151.413 34.2432 150.396 35.0226C149.38 35.7681 148.109 36.395 146.584 36.9033C145.093 37.4116 143.365 37.6658 141.399 37.6658ZM136.418 21.4507H146.33V21.2982C146.33 20.1121 146.127 19.0786 145.72 18.1975C145.347 17.2826 144.788 16.5709 144.042 16.0626C143.297 15.5543 142.399 15.3001 141.348 15.3001C140.298 15.3001 139.4 15.5543 138.654 16.0626C137.943 16.5709 137.384 17.2826 136.977 18.1975C136.604 19.0786 136.418 20.1121 136.418 21.2982V21.4507Z" fill="white"/>
<path d="M173.015 37.1575C170.914 37.1575 169.118 36.8186 167.627 36.1409C166.17 35.4292 165.052 34.3448 164.272 32.8877C163.493 31.4305 163.103 29.6006 163.103 27.3979V16.7234H159.138C158.766 16.7234 158.461 16.6048 158.223 16.3676C157.986 16.1304 157.868 15.8423 157.868 15.5035V11.9961C157.868 11.6234 157.986 11.3184 158.223 11.0812C158.461 10.844 158.766 10.7253 159.138 10.7253H163.103V2.33822C163.103 1.96546 163.222 1.66048 163.459 1.42327C163.73 1.18606 164.035 1.06745 164.374 1.06745H169.406C169.745 1.06745 170.033 1.18606 170.27 1.42327C170.508 1.66048 170.626 1.96546 170.626 2.33822V10.7253H176.98C177.353 10.7253 177.658 10.844 177.895 11.0812C178.132 11.3184 178.251 11.6234 178.251 11.9961V15.5035C178.251 15.8423 178.132 16.1304 177.895 16.3676C177.658 16.6048 177.353 16.7234 176.98 16.7234H170.626V26.788C170.626 28.0757 170.863 29.0923 171.338 29.8378C171.812 30.5495 172.609 30.9053 173.727 30.9053H177.438C177.81 30.9053 178.115 31.0239 178.353 31.2611C178.59 31.4983 178.708 31.7863 178.708 32.1252V35.8867C178.708 36.2595 178.59 36.5645 178.353 36.8017C178.115 37.0389 177.81 37.1575 177.438 37.1575H173.015Z" fill="white"/>
<path d="M185.38 37.1575C185.007 37.1575 184.702 37.0389 184.465 36.8017C184.227 36.5645 184.109 36.2595 184.109 35.8867V2.33822C184.109 1.96546 184.227 1.66048 184.465 1.42327C184.702 1.18606 185.007 1.06745 185.38 1.06745H190.869C191.242 1.06745 191.547 1.18606 191.784 1.42327C192.022 1.66048 192.14 1.96546 192.14 2.33822V13.7752C193.021 12.6908 194.123 11.8267 195.444 11.1828C196.8 10.539 198.409 10.217 200.273 10.217C202.272 10.217 204.035 10.6745 205.56 11.5895C207.118 12.4705 208.321 13.7752 209.169 15.5035C210.05 17.1978 210.49 19.265 210.49 21.7049V35.8867C210.49 36.2595 210.372 36.5645 210.134 36.8017C209.897 37.0389 209.592 37.1575 209.219 37.1575H203.679C203.34 37.1575 203.052 37.0389 202.815 36.8017C202.577 36.5645 202.459 36.2595 202.459 35.8867V22.0098C202.459 20.2138 202.018 18.8244 201.137 17.8417C200.256 16.8251 199.002 16.3168 197.376 16.3168C195.783 16.3168 194.512 16.8251 193.563 17.8417C192.615 18.8244 192.14 20.2138 192.14 22.0098V35.8867C192.14 36.2595 192.022 36.5645 191.784 36.8017C191.547 37.0389 191.242 37.1575 190.869 37.1575H185.38Z" fill="white"/>
<path d="M218.81 37.1575C218.471 37.1575 218.166 37.0389 217.895 36.8017C217.658 36.5645 217.539 36.2595 217.539 35.8867V11.9961C217.539 11.6234 217.658 11.3184 217.895 11.0812C218.166 10.844 218.471 10.7253 218.81 10.7253H223.944C224.283 10.7253 224.571 10.844 224.808 11.0812C225.045 11.3184 225.164 11.6234 225.164 11.9961V35.8867C225.164 36.2595 225.045 36.5645 224.808 36.8017C224.571 37.0389 224.283 37.1575 223.944 37.1575H218.81ZM218.657 6.65887C218.318 6.65887 218.03 6.54026 217.793 6.30305C217.556 6.06583 217.437 5.76085 217.437 5.38809V1.27077C217.437 0.931901 217.556 0.643858 217.793 0.406646C218.03 0.135548 218.318 0 218.657 0H224.045C224.384 0 224.672 0.135548 224.909 0.406646C225.181 0.643858 225.316 0.931901 225.316 1.27077V5.38809C225.316 5.76085 225.181 6.06583 224.909 6.30305C224.672 6.54026 224.384 6.65887 224.045 6.65887H218.657Z" fill="white"/>
<path d="M233.825 37.1575C233.486 37.1575 233.181 37.0389 232.91 36.8017C232.673 36.5645 232.554 36.2595 232.554 35.8867V11.9961C232.554 11.6234 232.673 11.3184 232.91 11.0812C233.181 10.844 233.486 10.7253 233.825 10.7253H238.806C239.179 10.7253 239.484 10.844 239.721 11.0812C239.958 11.3184 240.077 11.6234 240.077 11.9961V13.9785C240.958 12.8941 242.093 11.9961 243.483 11.2845C244.906 10.5729 246.6 10.217 248.566 10.217C250.565 10.217 252.327 10.6745 253.852 11.5895C255.377 12.4705 256.563 13.7752 257.41 15.5035C258.258 17.1978 258.681 19.265 258.681 21.7049V35.8867C258.681 36.2595 258.563 36.5645 258.325 36.8017C258.088 37.0389 257.783 37.1575 257.41 37.1575H252.022C251.65 37.1575 251.345 37.0389 251.107 36.8017C250.87 36.5645 250.751 36.2595 250.751 35.8867V22.0098C250.751 20.2138 250.311 18.8244 249.43 17.8417C248.583 16.8251 247.329 16.3168 245.668 16.3168C244.076 16.3168 242.805 16.8251 241.856 17.8417C240.941 18.8244 240.484 20.2138 240.484 22.0098V35.8867C240.484 36.2595 240.365 36.5645 240.128 36.8017C239.891 37.0389 239.586 37.1575 239.213 37.1575H233.825Z" fill="white"/>
<path d="M267.059 37.1575C266.686 37.1575 266.381 37.0389 266.144 36.8017C265.907 36.5645 265.788 36.2595 265.788 35.8867V2.33822C265.788 1.96546 265.907 1.66048 266.144 1.42327C266.381 1.18606 266.686 1.06745 267.059 1.06745H272.04C272.379 1.06745 272.667 1.18606 272.904 1.42327C273.175 1.66048 273.311 1.96546 273.311 2.33822V19.5191L281.088 11.5895C281.359 11.3523 281.596 11.1489 281.8 10.9795C282.037 10.8101 282.393 10.7253 282.867 10.7253H288.662C288.967 10.7253 289.221 10.844 289.424 11.0812C289.662 11.2845 289.78 11.5386 289.78 11.8436C289.78 11.9792 289.746 12.1317 289.679 12.3011C289.611 12.4705 289.492 12.6061 289.323 12.7078L279.512 22.569L290.593 35.2259C290.865 35.497 291 35.7681 291 36.0392C291 36.3442 290.898 36.6153 290.695 36.8525C290.492 37.0558 290.221 37.1575 289.882 37.1575H283.985C283.477 37.1575 283.104 37.0728 282.867 36.9033C282.664 36.7339 282.427 36.5306 282.155 36.2934L273.311 26.3305V35.8867C273.311 36.2595 273.175 36.5645 272.904 36.8017C272.667 37.0389 272.379 37.1575 272.04 37.1575H267.059Z" fill="white"/>
</svg>
