<svg width="1440" height="140" viewBox="0 0 1440 140" fill="none" xmlns="http://www.w3.org/2000/svg">
<rect width="1440" height="140" fill="#F6FBF9"/>
<rect width="307" height="34.6316" fill="#F6FBF9"/>
<rect x="1133" width="307" height="34.6316" fill="#F6FBF9"/>
<g clip-path="url(#clip0_301_184)">
<path fill-rule="evenodd" clip-rule="evenodd" d="M223.35 78.5065L224.885 74.9395C226.543 76.1794 228.752 76.8239 230.932 76.8239C232.541 76.8239 233.559 76.204 233.559 75.2642C233.534 72.637 223.921 74.6935 223.847 68.1056C223.822 64.76 226.794 62.182 231.006 62.182C233.51 62.182 236.009 62.8019 237.795 64.2139L236.359 67.8547C234.725 66.8117 232.693 66.0688 230.76 66.0688C229.446 66.0688 228.58 66.6887 228.58 67.4808C228.605 70.0589 238.292 68.6468 238.391 74.9395C238.391 78.3589 235.493 80.7648 231.33 80.7648C228.28 80.7599 225.48 80.0416 223.35 78.5065ZM282.297 73.6505C281.529 74.9887 280.092 75.9038 278.429 75.9038C275.974 75.9038 273.997 73.9211 273.997 71.4709C273.997 69.0208 275.979 67.038 278.429 67.038C280.088 67.038 281.529 67.9531 282.297 69.2914L286.533 66.9396C284.948 64.1155 281.898 62.182 278.429 62.182C273.298 62.182 269.136 66.3443 269.136 71.4758C269.136 76.6074 273.298 80.7697 278.429 80.7697C281.923 80.7697 284.948 78.8608 286.533 76.0121L282.297 73.6505ZM240.521 54.4723H245.825V80.4155H240.521V54.4723ZM288.614 54.4723V80.4155H293.918V72.632L300.21 80.4155H307L298.995 71.1708L306.405 62.546H299.91L293.913 69.7046V54.4723H288.614Z" fill="#A2BDAA"/>
<path d="M261.584 73.6996C260.816 74.9641 259.232 75.9038 257.446 75.9038C254.991 75.9038 253.013 73.921 253.013 71.4709C253.013 69.0207 254.996 67.038 257.446 67.038C259.232 67.038 260.816 68.0269 261.584 69.3159V73.6996ZM261.584 62.5509V64.6567C260.718 63.1954 258.563 62.177 256.304 62.177C251.645 62.177 247.98 66.2901 247.98 71.4463C247.98 76.6024 251.645 80.7648 256.304 80.7648C258.558 80.7648 260.713 79.7512 261.584 78.2851V80.3908H266.887V62.5509H261.584Z" fill="#A2BDAA"/>
<path fill-rule="evenodd" clip-rule="evenodd" d="M190.568 73.6751C190.568 75.4857 189.107 76.9469 187.296 76.9469C185.486 76.9469 184.025 75.4807 184.025 73.6751C184.025 71.8695 185.486 70.4033 187.296 70.4033H190.568V73.6751ZM192.202 73.6751C192.202 71.8645 193.663 70.4033 195.473 70.4033C197.284 70.4033 198.745 71.8645 198.745 73.6751V81.8521C198.745 83.6627 197.284 85.124 195.473 85.124C193.663 85.124 192.202 83.6627 192.202 81.8521V73.6751Z" fill="#A2BDAA"/>
<path fill-rule="evenodd" clip-rule="evenodd" d="M195.473 60.5436C193.663 60.5436 192.202 59.0824 192.202 57.2718C192.202 55.4612 193.663 54 195.473 54C197.284 54 198.745 55.4612 198.745 57.2718V60.5436H195.473ZM195.473 62.2016C197.284 62.2016 198.745 63.6629 198.745 65.4734C198.745 67.284 197.284 68.7452 195.473 68.7452H187.272C185.461 68.7452 184 67.2791 184 65.4734C184 63.6678 185.461 62.2016 187.272 62.2016H195.473Z" fill="#A2BDAA"/>
<path fill-rule="evenodd" clip-rule="evenodd" d="M208.58 65.4734C208.58 63.6629 210.042 62.2016 211.852 62.2016C213.663 62.2016 215.124 63.6629 215.124 65.4734C215.124 67.284 213.663 68.7452 211.852 68.7452H208.58V65.4734ZM206.947 65.4734C206.947 67.284 205.486 68.7452 203.675 68.7452C201.865 68.7452 200.403 67.284 200.403 65.4734V57.2718C200.403 55.4612 201.865 54 203.675 54C205.486 54 206.947 55.4612 206.947 57.2718V65.4734Z" fill="#A2BDAA"/>
<path fill-rule="evenodd" clip-rule="evenodd" d="M203.675 78.5803C205.486 78.5803 206.947 80.0416 206.947 81.8521C206.947 83.6627 205.486 85.124 203.675 85.124C201.865 85.124 200.403 83.6627 200.403 81.8521V78.5803H203.675ZM203.675 76.9469C201.865 76.9469 200.403 75.4857 200.403 73.6751C200.403 71.8645 201.865 70.4033 203.675 70.4033H211.877C213.687 70.4033 215.149 71.8645 215.149 73.6751C215.149 75.4857 213.687 76.9469 211.877 76.9469H203.675Z" fill="#A2BDAA"/>
</g>
<path fill-rule="evenodd" clip-rule="evenodd" d="M501.581 79.5257C494.807 84.5303 484.955 87.1967 476.457 87.1967C464.552 87.1967 453.878 82.8074 445.749 75.5056C445.134 74.9313 445.667 74.1519 446.447 74.6031C455.192 79.6898 465.988 82.7254 477.155 82.7254C484.667 82.7254 492.96 81.1665 500.596 77.9258C501.745 77.4746 502.689 78.7053 501.581 79.5257Z" fill="#A2BDAA"/>
<path fill-rule="evenodd" clip-rule="evenodd" d="M504.414 76.2849C503.552 75.1773 498.666 75.7516 496.49 76.0388C495.834 76.1208 495.71 75.5465 496.326 75.1363C500.226 72.3878 506.589 73.2083 507.328 74.1108C508.067 75.0132 507.123 81.4127 503.469 84.4483C502.895 84.8995 502.361 84.6534 502.607 84.0381C503.428 81.987 505.276 77.4335 504.414 76.2849Z" fill="#A2BDAA"/>
<path fill-rule="evenodd" clip-rule="evenodd" d="M496.614 55.8561V53.1896C496.614 52.7794 496.901 52.5333 497.271 52.5333H509.176C509.545 52.5333 509.874 52.8204 509.874 53.1896V55.4458C509.874 55.815 509.545 56.3073 508.971 57.1277L502.813 65.9064C505.112 65.8654 507.534 66.1936 509.586 67.3422C510.038 67.5883 510.161 67.9985 510.202 68.3677V71.1982C510.202 71.6085 509.792 72.0597 509.34 71.8136C505.686 69.8855 500.801 69.6804 496.778 71.8546C496.367 72.0597 495.916 71.6495 495.916 71.2393V68.5318C495.916 68.1216 495.916 67.3832 496.367 66.7269L503.511 56.5124H497.312C496.942 56.5124 496.614 56.2253 496.614 55.8561ZM453.221 72.3879H449.608C449.28 72.3468 448.993 72.1007 448.952 71.7725V53.2307C448.952 52.8615 449.28 52.5743 449.649 52.5743H453.016C453.385 52.5743 453.632 52.8615 453.673 53.1896V55.6099H453.755C454.617 53.2717 456.3 52.1641 458.517 52.1641C460.775 52.1641 462.212 53.2717 463.197 55.6099C464.059 53.2717 466.071 52.1641 468.205 52.1641C469.724 52.1641 471.366 52.7794 472.393 54.2152C473.542 55.774 473.296 58.0302 473.296 60.0403V71.7725C473.296 72.1417 472.967 72.4289 472.598 72.4289H469.026C468.657 72.3879 468.369 72.1007 468.369 71.7725V61.9273C468.369 61.1479 468.452 59.1788 468.287 58.4404C468 57.2098 467.22 56.8406 466.153 56.8406C465.291 56.8406 464.346 57.4149 463.977 58.3584C463.607 59.3019 463.648 60.8607 463.648 61.9273V71.7725C463.648 72.1417 463.32 72.4289 462.951 72.4289H459.338C458.968 72.3879 458.681 72.1007 458.681 71.7725V61.9273C458.681 59.8762 459.009 56.7996 456.464 56.7996C453.878 56.7996 453.96 59.7531 453.96 61.9273V71.7725C453.919 72.1007 453.632 72.3879 453.221 72.3879ZM520.137 52.1641C525.515 52.1641 528.429 56.7585 528.429 62.6247C528.429 68.2857 525.227 72.7981 520.137 72.7981C514.882 72.7981 512.008 68.2036 512.008 62.4606C511.967 56.6765 514.882 52.1641 520.137 52.1641ZM520.137 55.9791C517.468 55.9791 517.304 59.6301 517.304 61.8863C517.304 64.1425 517.263 68.9831 520.096 68.9831C522.887 68.9831 523.052 65.086 523.052 62.7067C523.052 61.1479 522.969 59.2609 522.518 57.7841C522.107 56.4714 521.286 55.9791 520.137 55.9791ZM535.367 72.3879H531.755C531.385 72.3468 531.098 72.0597 531.098 71.7315V53.1486C531.139 52.8204 531.426 52.5333 531.796 52.5333H535.162C535.491 52.5333 535.737 52.7794 535.819 53.0666V55.8971H535.901C536.927 53.3537 538.323 52.1641 540.827 52.1641C542.428 52.1641 544.029 52.7384 545.056 54.3382C546 55.815 546 58.3174 546 60.1223V71.8136C545.959 72.1417 545.672 72.3879 545.302 72.3879H541.689C541.361 72.3468 541.074 72.1007 541.033 71.8136V61.7222C541.033 59.6711 541.279 56.7175 538.775 56.7175C537.913 56.7175 537.092 57.2918 536.681 58.1943C536.188 59.3429 536.106 60.4505 536.106 61.7222V71.7315C536.065 72.1007 535.737 72.3879 535.367 72.3879ZM487.131 63.5272C487.131 64.9219 487.172 66.1115 486.474 67.3832C485.899 68.4088 484.996 69.0241 483.969 69.0241C482.574 69.0241 481.753 67.9575 481.753 66.3987C481.753 63.322 484.503 62.7477 487.131 62.7477V63.5272ZM490.784 72.3469C490.538 72.552 490.209 72.593 489.922 72.4289C488.732 71.4444 488.485 70.9521 487.828 70.0086C485.858 72.0187 484.421 72.634 481.876 72.634C478.838 72.634 476.457 70.747 476.457 67.014C476.457 64.0604 478.058 62.0914 480.316 61.1069C482.286 60.2454 485.037 60.0813 487.131 59.8352V59.3839C487.131 58.5225 487.213 57.4969 486.679 56.7585C486.227 56.1022 485.406 55.815 484.667 55.815C483.272 55.815 482.04 56.5124 481.753 57.9892C481.671 58.3174 481.465 58.6455 481.137 58.6455L477.647 58.2763C477.36 58.1943 477.032 57.9892 477.114 57.538C477.935 53.2717 481.753 52 485.201 52C486.966 52 489.265 52.4512 490.661 53.805C492.426 55.4458 492.262 57.661 492.262 60.0403V65.6603C492.262 67.3422 492.96 68.0806 493.617 69.0241C493.863 69.3523 493.904 69.7625 493.617 69.9676C492.837 70.5829 491.523 71.7315 490.784 72.3469ZM439.715 63.5272C439.715 64.9219 439.756 66.1115 439.058 67.3832C438.483 68.4088 437.58 69.0241 436.554 69.0241C435.158 69.0241 434.337 67.9575 434.337 66.3987C434.337 63.322 437.087 62.7477 439.715 62.7477V63.5272ZM443.327 72.3469C443.081 72.552 442.753 72.593 442.465 72.4289C441.275 71.4444 441.028 70.9521 440.372 70.0086C438.401 72.0187 436.964 72.634 434.419 72.634C431.381 72.634 429 70.747 429 67.014C429 64.0604 430.601 62.0914 432.859 61.1069C434.829 60.2454 437.58 60.0813 439.674 59.8352V59.3839C439.674 58.5225 439.756 57.4969 439.222 56.7585C438.771 56.1022 437.949 55.815 437.211 55.815C435.815 55.815 434.583 56.5124 434.296 57.9892C434.214 58.3174 434.008 58.6455 433.68 58.6455L430.191 58.2763C429.903 58.1943 429.575 57.9892 429.657 57.538C430.478 53.2717 434.296 52 437.744 52C439.509 52 441.808 52.4512 443.204 53.805C444.969 55.4458 444.805 57.661 444.805 60.0403V65.6603C444.805 67.3422 445.503 68.0806 446.16 69.0241C446.406 69.3523 446.447 69.7625 446.16 69.9676C445.38 70.5829 444.066 71.7315 443.327 72.3469Z" fill="#A2BDAA"/>
<path d="M1222.22 69.4083C1220.98 69.4083 1220.09 69.8141 1219.19 70.2276V79.5834C1220.05 79.666 1220.55 79.666 1221.37 79.666C1224.35 79.666 1224.75 78.3055 1224.75 76.4061V71.9377C1224.75 70.5349 1224.29 69.4083 1222.22 69.4083ZM1202.48 68.8977C1200.42 68.8977 1199.95 70.0292 1199.95 71.4306V72.218H1205.01V71.4306C1205.01 70.0292 1204.54 68.8977 1202.48 68.8977ZM1164.23 78.6357C1164.23 79.7443 1164.76 80.3202 1165.91 80.3202C1167.15 80.3202 1167.88 79.9164 1168.79 79.5015V77.2823H1166.08C1164.8 77.2823 1164.23 77.5209 1164.23 78.6357ZM1241.43 69.4083C1239.36 69.4083 1238.65 70.5349 1238.65 71.9377V77.0568C1238.65 78.463 1239.36 79.5931 1241.43 79.5931C1243.49 79.5931 1244.21 78.463 1244.21 77.0568V71.9377C1244.21 70.5349 1243.49 69.4083 1241.43 69.4083ZM1154.11 84.3758H1148.03V69.6865H1145V64.625H1148.04V61.585C1148.04 57.4551 1149.75 55 1154.62 55H1158.67V60.0629H1156.14C1154.24 60.0629 1154.12 60.7705 1154.12 62.0907L1154.11 64.6243H1158.7L1158.16 69.6858H1154.11V84.3758ZM1174.86 84.4139H1169.8L1169.58 83.1347C1167.27 84.4139 1165.21 84.6213 1163.85 84.6213C1160.14 84.6213 1158.16 82.1433 1158.16 78.7162C1158.16 74.6731 1160.47 73.2301 1164.59 73.2301H1168.79V72.356C1168.79 70.2921 1168.55 69.6865 1165.38 69.6865H1160.18L1160.69 64.625H1166.37C1173.34 64.625 1174.86 66.8248 1174.86 72.3969V84.4139ZM1192.08 70.0576C1188.93 69.5179 1188.02 69.3993 1186.51 69.3993C1183.78 69.3993 1182.96 69.9994 1182.96 72.3095V76.6794C1182.96 78.9896 1183.78 79.5924 1186.51 79.5924C1188.02 79.5924 1188.93 79.4717 1192.08 78.9299V83.8673C1189.32 84.4854 1187.52 84.6477 1186 84.6477C1179.48 84.6477 1176.89 81.2213 1176.89 76.2715V72.7258C1176.89 67.7718 1179.48 64.3391 1186 64.3391C1187.52 64.3391 1189.32 64.5022 1192.08 65.1231V70.0576ZM1211.08 76.2715H1199.95V76.6794C1199.95 78.9896 1200.77 79.5924 1203.49 79.5924C1205.94 79.5924 1207.43 79.4717 1210.58 78.9299V83.8673C1207.54 84.4854 1205.96 84.6477 1202.99 84.6477C1196.47 84.6477 1193.87 81.2213 1193.87 76.2715V72.2173C1193.87 67.8862 1195.8 64.3391 1202.48 64.3391C1209.16 64.3391 1211.08 67.8453 1211.08 72.2173V76.2715ZM1230.83 76.3651C1230.83 81.1492 1229.46 84.6387 1221.17 84.6387C1218.17 84.6387 1216.42 84.3758 1213.11 83.8679V56.5207L1219.19 55.5085V65.0745C1220.5 64.5875 1222.2 64.3398 1223.74 64.3398C1229.81 64.3398 1230.83 67.06 1230.83 71.4313V76.3651H1230.83ZM1250.29 76.4692C1250.29 80.5963 1248.58 84.5991 1241.45 84.5991C1234.31 84.5991 1232.57 80.5963 1232.57 76.4692V72.4844C1232.57 68.3552 1234.31 64.3516 1241.45 64.3516C1248.58 64.3516 1250.29 68.3552 1250.29 72.4844V76.4692ZM1269.74 76.4692C1269.74 80.5963 1268.03 84.5991 1260.9 84.5991C1253.76 84.5991 1252.02 80.5963 1252.02 76.4692V72.4844C1252.02 68.3552 1253.76 64.3516 1260.9 64.3516C1268.03 64.3516 1269.74 68.3552 1269.74 72.4844V76.4692ZM1289.7 84.3758H1283.12L1277.55 75.0914V84.3758H1271.48V56.52L1277.55 55.5078V73.4403L1283.12 64.625H1289.7L1283.62 74.2451L1289.7 84.3758ZM1260.88 69.4083C1258.81 69.4083 1258.1 70.5349 1258.1 71.9377V77.0568C1258.1 78.463 1258.81 79.5931 1260.88 79.5931C1262.94 79.5931 1263.67 78.463 1263.67 77.0568V71.9377C1263.67 70.5349 1262.94 69.4083 1260.88 69.4083ZM1293.16 80.9112C1294.19 80.9112 1295 81.7444 1295 82.785C1295 83.8416 1294.18 84.6657 1293.16 84.6657C1292.13 84.6657 1291.3 83.8416 1291.3 82.785C1291.3 81.7444 1292.13 80.9112 1293.16 80.9112H1293.16ZM1293.16 81.2026C1292.33 81.2026 1291.66 81.9109 1291.66 82.785C1291.66 83.6751 1292.33 84.3744 1293.16 84.3744C1293.99 84.3827 1294.66 83.6751 1294.66 82.7933C1294.66 81.9116 1293.99 81.2026 1293.16 81.2026H1293.16ZM1292.81 83.8756H1292.47V81.7846C1292.65 81.7604 1292.81 81.7361 1293.06 81.7361C1293.38 81.7361 1293.59 81.8027 1293.71 81.8936C1293.84 81.9858 1293.9 82.1267 1293.9 82.3258C1293.9 82.6019 1293.72 82.7677 1293.5 82.835V82.8509C1293.68 82.8849 1293.8 83.05 1293.85 83.3574C1293.9 83.6827 1293.95 83.8069 1293.98 83.8749H1293.63C1293.58 83.8069 1293.53 83.6161 1293.49 83.3407C1293.44 83.075 1293.3 82.9751 1293.04 82.9751H1292.81V83.8756H1292.81ZM1292.81 82.7184H1293.05C1293.32 82.7184 1293.55 82.6178 1293.55 82.3591C1293.55 82.1759 1293.42 81.9935 1293.05 81.9935C1292.94 81.9935 1292.86 82.0018 1292.81 82.0094V82.7184Z" fill="#A2BDAA"/>
<g clip-path="url(#clip1_301_184)">
<path d="M677 76.7643V54.4747H680.915V76.7642H677V76.7643V76.7643ZM690.938 60.594C685.918 60.594 682.444 64.4538 682.444 68.8718C682.444 73.8023 686.223 77.1992 690.977 77.1992C695.489 77.1992 699.404 73.8651 699.404 68.8611C699.404 64.6534 696.159 60.5941 690.938 60.5941V60.594ZM690.892 64.3713C693.519 64.3713 695.453 66.4161 695.453 68.8859C695.453 71.5047 693.321 73.4148 690.963 73.4148C688.177 73.4148 686.423 71.2066 686.423 68.893C686.423 66.3571 688.403 64.3712 690.892 64.3712V64.3713ZM709.241 60.594C704.221 60.594 700.747 64.4538 700.747 68.8718C700.747 73.8023 704.526 77.1992 709.28 77.1992C713.792 77.1992 717.707 73.8651 717.707 68.8611C717.707 65.9145 716.431 64.6071 716.431 64.6071L717.516 64.2349V61.0572H711.955C711.955 61.0572 710.749 60.594 709.241 60.594ZM709.195 64.3713C711.822 64.3713 713.756 66.4161 713.756 68.8859C713.756 71.5047 711.624 73.4148 709.266 73.4148C706.48 73.4148 704.726 71.2066 704.726 68.893C704.726 66.3571 706.706 64.3712 709.195 64.3712V64.3713ZM713.728 77.8539C713.728 80.4725 711.596 82.397 709.238 82.397C706.452 82.397 704.692 80.1673 704.692 77.8539H700.719C700.719 82.7845 704.499 86.1811 709.253 86.1811C713.764 86.1811 717.679 82.8575 717.679 77.8539H713.728ZM719.275 76.7643V61.0572H723.19V76.7643H719.275ZM726.992 76.7643V64.5755H724.893V61.0572H726.992V56.2339H730.908V61.0572H733.064V64.5755H730.908V76.7643H726.992ZM723.817 56.5961C723.817 58.0281 722.657 59.1889 721.225 59.1889C719.793 59.1889 718.632 58.028 718.632 56.5961C718.632 55.1642 719.793 54.0033 721.225 54.0033C722.657 54.0033 723.817 55.1642 723.817 56.5961ZM741.867 60.5834C736.823 60.5834 733.571 64.4451 733.571 69.0136C733.571 73.7347 736.834 77.2098 741.948 77.2098C746.719 77.2098 749.066 74.2305 749.066 74.2305L746.449 71.6096C746.449 71.6096 744.473 73.7412 741.998 73.7412C739.935 73.7412 738.286 72.5897 737.71 70.4783H749.91V69.4002C749.91 65.0982 747.42 60.5834 741.867 60.5834ZM741.743 64.0307C743.546 64.0307 745.391 64.9957 745.804 67.3006H737.604C737.928 65.6804 739.346 64.0307 741.743 64.0307ZM759.704 77.2119C754.646 77.2119 751.199 73.3593 751.199 68.8171C751.199 64.1295 755.094 60.5805 759.688 60.5805C764.128 60.5805 766.401 63.715 766.401 63.715L763.669 66.4341C763.669 66.4341 762.087 64.3898 759.669 64.3898C756.989 64.3898 755.156 66.4401 755.156 68.8772C755.156 71.4504 757.106 73.4249 759.639 73.4249C762.096 73.4249 763.666 71.384 763.666 71.384L766.424 74.1015C766.424 74.1015 764.174 77.212 759.704 77.212H759.704V77.2118V77.2119ZM767.849 76.7757V54.4181H771.764V62.6324C771.764 62.6324 773.264 60.5805 776.525 60.5805C780.625 60.5805 783 63.6282 783 67.5262V76.7756H779.084V68.118C779.084 65.4992 777.454 64.4127 775.648 64.4127C773.59 64.4127 771.764 65.5838 771.764 68.3205V76.7757H767.849Z" fill="#A2BDAA"/>
</g>
<path fill-rule="evenodd" clip-rule="evenodd" d="M933.218 54.5286H934.147C937.371 54.595 940.542 55.8228 942.82 57.9963C941.979 58.8093 941.121 59.5891 940.297 60.4019C939.018 59.3071 937.476 58.4608 935.794 58.1622C933.306 57.6644 930.625 58.1123 928.54 59.4564C926.262 60.8665 924.72 63.2557 924.387 65.8107C924.02 68.3327 924.773 70.9874 926.508 72.9451C928.172 74.8532 930.713 76.0477 933.341 76.1307C935.794 76.2635 938.352 75.5499 940.139 73.924C941.541 72.7791 942.189 71.0372 942.4 69.3449C939.491 69.3449 936.583 69.3613 933.674 69.3449V65.927H945.921C946.552 69.5937 945.641 73.7249 942.698 76.3463C940.735 78.2046 938.019 79.2996 935.251 79.5154C932.57 79.7642 929.802 79.283 927.419 78.0552C924.563 76.6119 922.285 74.1728 921.164 71.3026C920.112 68.6645 920.095 65.678 921.076 63.0234C921.97 60.6011 923.687 58.4608 925.894 56.9677C928.014 55.4909 930.59 54.6779 933.218 54.5286Z" fill="#A2BDAA"/>
<path fill-rule="evenodd" clip-rule="evenodd" d="M1003.48 55.3914H1007.23V79.084C1005.99 79.084 1004.72 79.1004 1003.48 79.0674C1003.5 71.1865 1003.48 63.289 1003.48 55.3914Z" fill="#A2BDAA"/>
<path fill-rule="evenodd" clip-rule="evenodd" d="M954.262 63.6042C956.575 63.1893 959.08 63.6538 960.99 64.9646C962.725 66.126 963.934 67.9512 964.302 69.9421C964.775 72.2483 964.179 74.7701 962.602 76.5953C960.903 78.6359 958.117 79.7309 955.401 79.565C952.913 79.4323 950.495 78.2544 949.023 76.3297C947.359 74.206 946.956 71.286 947.867 68.7972C948.778 66.126 951.353 64.0854 954.262 63.6042ZM954.788 66.7564C953.841 66.9888 952.965 67.503 952.335 68.2332C950.635 70.1577 950.74 73.2935 952.615 75.0853C953.684 76.1141 955.296 76.5953 956.785 76.3131C958.169 76.0809 959.378 75.2016 960.044 74.0401C961.201 72.0658 960.868 69.3449 959.098 67.8019C957.959 66.8063 956.295 66.3916 954.788 66.7564Z" fill="#A2BDAA"/>
<path fill-rule="evenodd" clip-rule="evenodd" d="M972.835 63.6042C975.48 63.123 978.371 63.8198 980.351 65.5785C983.575 68.3161 983.926 73.4428 981.175 76.5953C979.51 78.5862 976.812 79.6813 974.149 79.565C971.608 79.4987 969.102 78.3042 967.596 76.3297C965.896 74.1562 965.528 71.1699 966.492 68.6313C967.455 66.0431 969.979 64.0688 972.835 63.6042ZM973.36 66.7565C972.414 66.9888 971.538 67.503 970.907 68.2166C969.225 70.1081 969.295 73.1941 971.1 75.0025C972.169 76.0809 973.833 76.6119 975.375 76.3131C976.742 76.0643 977.968 75.2016 978.634 74.0401C979.773 72.0492 979.44 69.3282 977.653 67.7853C976.514 66.7897 974.85 66.3916 973.36 66.7565Z" fill="#A2BDAA"/>
<path fill-rule="evenodd" clip-rule="evenodd" d="M988.586 64.5664C990.601 63.3718 993.282 63.04 995.455 64.0688C996.138 64.3508 996.699 64.832 997.242 65.3131L997.26 63.9361L1000.8 63.9525V78.5862C1000.78 80.7928 1000.19 83.1322 998.503 84.7416C996.664 86.5168 993.843 87.0644 991.302 86.6994C988.586 86.3179 986.221 84.443 985.17 82.0704C986.221 81.5892 987.325 81.2077 988.411 80.7597C989.024 82.1202 990.268 83.2815 991.828 83.5471C993.387 83.8125 995.192 83.4474 996.208 82.2197C997.294 80.9587 997.294 79.2334 997.242 77.6904C996.436 78.4369 995.507 79.1004 994.386 79.3494C991.95 79.9965 989.27 79.2001 987.395 77.6405C985.503 76.0809 984.381 73.6752 984.486 71.286C984.539 68.5815 986.151 65.9767 988.586 64.5664ZM992.213 66.6902C991.144 66.8561 990.146 67.4202 989.462 68.2C987.815 70.0582 987.815 73.0281 989.48 74.8531C990.426 75.9316 991.95 76.5289 993.422 76.3795C994.806 76.2468 996.086 75.4172 996.769 74.2725C997.925 72.3312 997.733 69.6931 996.173 68.0008C995.209 66.9556 993.668 66.4412 992.213 66.6902Z" fill="#A2BDAA"/>
<path fill-rule="evenodd" clip-rule="evenodd" d="M1011.73 65.4126C1013.83 63.5544 1017.08 62.9239 1019.77 63.9028C1022.33 64.8154 1023.96 67.1215 1024.79 69.4942C1020.98 70.9873 1017.2 72.4639 1013.4 73.9573C1013.92 74.903 1014.73 75.7657 1015.81 76.1141C1017.34 76.6283 1019.16 76.446 1020.44 75.4836C1020.95 75.1186 1021.35 74.6374 1021.74 74.1728L1024.63 75.9978C1023.26 77.9391 1020.97 79.2996 1018.5 79.5154C1015.76 79.8306 1012.85 78.835 1011.08 76.8109C1008.18 73.6254 1008.46 68.2828 1011.73 65.4126ZM1013.61 68.482C1013.01 69.295 1012.77 70.2904 1012.78 71.2694C1015.32 70.274 1017.86 69.2784 1020.41 68.2664C1019.98 67.3373 1018.97 66.7731 1017.93 66.6238C1016.27 66.3417 1014.54 67.1878 1013.61 68.482Z" fill="#A2BDAA"/>
<defs>
<clipPath id="clip0_301_184">
<rect width="123" height="31.1239" fill="white" transform="translate(184 54)"/>
</clipPath>
<clipPath id="clip1_301_184">
<rect width="106" height="32.1816" fill="white" transform="translate(677 54)"/>
</clipPath>
</defs>
</svg>
