<svg width="475" height="10" viewBox="0 0 475 10" fill="none" xmlns="http://www.w3.org/2000/svg">
<path opacity="0.5" d="M473.656 0.0606978C474.176 -0.128485 474.75 0.139344 474.939 0.658911C475.129 1.17848 474.861 1.75303 474.341 1.94222L473.656 0.0606978ZM461.259 5.6403L461.601 6.58106L461.259 5.6403ZM413.997 5.05299L413.668 4.10751L413.997 5.05299ZM408.557 6.94772L408.228 6.00224L408.557 6.94772ZM374.65 4.06584L374.979 5.01132L374.65 4.06584ZM365.474 7.26161L365.145 6.31613L365.474 7.26161ZM333.9 4.78067L334.307 5.69536L333.9 4.78067ZM293.366 5.29887L293.773 6.21356L293.366 5.29887ZM292.899 5.50678L292.492 4.59209L292.899 5.50678ZM246.678 7.04495L247.014 7.98814L246.678 7.04495ZM213.098 4.99444L213.506 5.90851L213.098 4.99444ZM189.543 4.67258L189.941 3.75389L189.543 4.67258ZM155.818 5.91092L155.39 6.81643L155.818 5.91092ZM118.877 6.02826L118.468 6.94233L118.877 6.02826ZM62.6511 5.39145L62.208 4.49369L62.6511 5.39145ZM44.2448 5.38547L43.7889 6.27683L44.2448 5.38547ZM0.878046 0.101679L10.8888 4.98647L10.0107 6.78603L-5.50205e-05 1.90124L0.878046 0.101679ZM44.7007 4.49411L45.1251 4.71121L44.2133 6.49393L43.7889 6.27683L44.7007 4.49411ZM61.5306 4.82806L62.208 4.49369L63.0943 6.28921L62.4169 6.62358L61.5306 4.82806ZM80.9693 4.24776L82.8692 5.12446L82.0303 6.9426L80.1303 6.0659L80.9693 4.24776ZM116.576 3.90335L119.285 5.11419L118.468 6.94233L115.759 5.73149L116.576 3.90335ZM154.902 4.37189L156.245 5.00542L155.39 6.81643L154.047 6.1829L154.902 4.37189ZM189.941 3.75389L192.766 4.97771L191.97 6.81509L189.145 5.59127L189.941 3.75389ZM210.914 4.87372L212.689 4.08037L213.506 5.90851L211.731 6.70186L210.914 4.87372ZM246.342 6.10176L253.881 3.41757L254.553 5.30395L247.014 7.98814L246.342 6.10176ZM292.492 4.59209L292.959 4.38418L293.773 6.21356L293.306 6.42148L292.492 4.59209ZM331.249 4.86428L333.493 3.86598L334.307 5.69536L332.064 6.69367L331.249 4.86428ZM365.145 6.31613L374.321 3.12036L374.979 5.01132L365.804 8.20709L365.145 6.31613ZM408.228 6.00224L413.668 4.10751L414.327 5.99847L408.887 7.8932L408.228 6.00224ZM460.916 4.69954L473.656 0.0606978L474.341 1.94222L461.601 6.58106L460.916 4.69954ZM437.582 4.48884C445.06 7.34141 453.401 7.43597 460.916 4.69954L461.601 6.58106C453.628 9.48417 444.791 9.3818 436.868 6.35971L437.582 4.48884ZM413.668 4.10751C421.407 1.41231 429.931 1.57032 437.582 4.48884L436.868 6.35971C429.652 3.6073 421.614 3.46028 414.327 5.99847L413.668 4.10751ZM392.088 4.63044C397.029 7.36001 402.897 7.85882 408.228 6.00224L408.887 7.8932C403.019 9.93691 396.558 9.38783 391.12 6.38312L392.088 4.63044ZM374.321 3.12036C380.189 1.07665 386.649 1.62573 392.088 4.63044L391.12 6.38312C386.179 3.65355 380.31 3.15474 374.979 5.01132L374.321 3.12036ZM350.896 4.88369C355.202 7.43879 360.417 7.96298 365.145 6.31613L365.804 8.20709C360.518 10.0482 354.688 9.46214 349.875 6.60571L350.896 4.88369ZM333.493 3.86598C339.116 1.36352 345.603 1.74288 350.896 4.88369L349.875 6.60571C345.14 3.79624 339.337 3.45689 334.307 5.69536L333.493 3.86598ZM313.082 4.63506C318.802 7.33037 325.479 7.4322 331.249 4.86428L332.064 6.69367C325.755 9.50137 318.469 9.38679 312.229 6.4464L313.082 4.63506ZM292.959 4.38418C299.359 1.53566 306.751 1.65188 313.082 4.63506L312.229 6.4464C306.418 3.7083 299.635 3.60483 293.773 6.21356L292.959 4.38418ZM273.158 4.37365C279.26 7.24899 286.331 7.33393 292.492 4.59209L293.306 6.42148C286.611 9.40091 278.931 9.30773 272.304 6.18499L273.158 4.37365ZM253.881 3.41757C260.175 1.17695 267.116 1.52682 273.158 4.37365L272.304 6.18499C266.74 3.56289 260.346 3.24133 254.553 5.30395L253.881 3.41757ZM231.084 4.85787C235.757 7.43935 241.313 7.89228 246.342 6.10176L247.014 7.98814C241.444 9.9711 235.291 9.46949 230.116 6.61055L231.084 4.85787ZM212.689 4.08037C218.603 1.43773 225.415 1.72563 231.084 4.85787L230.116 6.61055C224.997 3.78229 218.846 3.52233 213.506 5.90851L212.689 4.08037ZM192.766 4.97771C198.562 7.48862 205.147 7.45089 210.914 4.87372L211.731 6.70186C205.451 9.50807 198.282 9.54915 191.97 6.81509L192.766 4.97771ZM172.477 4.53713C177.868 1.60325 184.309 1.31436 189.941 3.75389L189.145 5.59127C184.079 3.39665 178.284 3.65653 173.435 6.29589L172.477 4.53713ZM156.245 5.00542C161.421 7.44688 167.451 7.27292 172.477 4.53713L173.435 6.29589C167.847 9.33696 161.144 9.53033 155.39 6.81643L156.245 5.00542ZM136.03 4.67423C141.934 1.65457 148.904 1.54291 154.902 4.37189L154.047 6.1829C148.611 3.61865 142.293 3.71987 136.942 6.45694L136.03 4.67423ZM119.285 5.11419C124.646 7.50953 130.803 7.34776 136.03 4.67423L136.942 6.45694C131.175 9.4065 124.382 9.58497 118.468 6.94233L119.285 5.11419ZM98.9339 4.59332C104.386 1.62623 110.909 1.3711 116.576 3.90335L115.759 5.73149C110.662 3.45389 104.795 3.68337 99.8911 6.35208L98.9339 4.59332ZM82.8692 5.12446C88.0073 7.49534 93.9637 7.29841 98.9339 4.59332L99.8911 6.35208C94.3652 9.35962 87.7428 9.57857 82.0303 6.9426L82.8692 5.12446ZM62.208 4.49369C68.1039 1.58332 74.9991 1.49293 80.9693 4.24776L80.1303 6.0659C74.7092 3.5644 68.448 3.64648 63.0943 6.28921L62.208 4.49369ZM45.1251 4.71121C50.2677 7.34146 56.3511 7.38478 61.5306 4.82806L62.4169 6.62358C56.6698 9.46054 49.9195 9.41246 44.2133 6.49393L45.1251 4.71121ZM26.7188 4.67674C32.3193 1.66726 39.0403 1.599 44.7007 4.49411L43.7889 6.27683C38.7139 3.68112 32.6879 3.74232 27.6667 6.44057L26.7188 4.67674ZM10.8888 4.98647C15.9081 7.43565 21.7992 7.32038 26.7188 4.67674L27.6667 6.44057C22.1796 9.38915 15.609 9.51771 10.0107 6.78603L10.8888 4.98647Z" fill="#C9F87C"/>
</svg>
