<svg width="165" height="201" viewBox="0 0 165 201" fill="none" xmlns="http://www.w3.org/2000/svg">
<path d="M0 129.17V190.088C15.5755 193.994 28.4532 197.223 43.5124 201L48.3471 170.211L43.5124 139.422L22.4008 130.309L0 129.17Z" fill="#5EBA3F"/>
<path d="M43.5126 9.69914V130.09L59.7369 139.239L82.1903 142.14L87.025 47.3213L82.1903 19.5477L62.8515 9.84851L43.5126 9.69914Z" fill="#5374E9"/>
<path d="M82.1901 19.5477V134.253L101.529 132.05L120.868 122.202C120.868 120.697 120.868 11.2035 120.868 9.69914L101.529 9.84851L82.1901 19.5477Z" fill="#6C8DFF"/>
<path fill-rule="evenodd" clip-rule="evenodd" d="M82.1901 0.000188023V0L82.1905 9.40117e-05L82.1908 2.2264e-05L82.1909 0.00018608L120.868 9.69919L111.115 12.1824C100.601 14.8596 85.4434 18.7193 82.1909 19.5476L82.1908 19.5478C82.1907 19.5477 82.1905 19.5477 82.1904 19.5477C82.1903 19.5477 82.1902 19.5477 82.1901 19.5478V19.5476C80.7719 19.1865 77.1219 18.2571 72.5858 17.1021C62.0656 14.4233 46.7792 10.5309 43.5131 9.69921L82.1901 0.000188023Z" fill="#7CAEF8"/>
<path d="M43.5126 139.422V201C48.3122 199.796 77.4597 192.487 82.1903 191.301L87.025 160.805L82.1903 130.309C76.4815 130.588 64.4617 131.175 61.0787 131.34C58.9453 132.321 45.6538 138.437 43.5126 139.422Z" fill="#6BCD49"/>
<path fill-rule="evenodd" clip-rule="evenodd" d="M43.5124 139.422C38.2096 138.173 5.29175 130.417 0 129.17L43.5124 118.258L43.5127 118.259V118.258C54.9268 121.814 58.8156 123.026 61.5716 123.885C65.286 125.042 66.9427 125.558 82.1904 130.309C79.2442 131.003 66.6637 133.967 56.5178 136.358C50.4551 137.787 45.2617 139.01 43.5127 139.422V139.422L43.5124 139.422Z" fill="#C9F87C"/>
<path d="M120.868 139.422L125.702 170.211L120.868 201C116.189 199.826 86.8995 192.481 82.1899 191.3C82.1899 187.914 82.1899 133.695 82.1899 130.309L101.529 131.016L120.868 139.422Z" fill="#F39321"/>
<path d="M164.38 129.17V190.088C148.804 193.994 135.927 197.223 120.868 201C120.868 197.577 120.868 142.845 120.868 139.422L142.624 130.309L164.38 129.17Z" fill="#F3A141"/>
<path fill-rule="evenodd" clip-rule="evenodd" d="M120.868 118.258L120.868 118.258C120.72 118.304 120.85 118.264 120.868 118.258V118.258C120.801 118.279 118.957 118.853 101.6 124.262C97.6158 125.503 92.8142 126.999 87.0288 128.801C85.4868 129.282 83.8749 129.784 82.1899 130.309L101.529 134.866L120.868 139.422L120.868 139.422C126.17 138.173 159.088 130.417 164.38 129.17L120.868 118.258C120.869 118.258 120.869 118.258 120.869 118.258C120.869 118.258 120.869 118.258 120.868 118.258L120.868 118.258Z" fill="#F8C67C"/>
</svg>
