<svg width="27" height="27" viewBox="0 0 27 27" fill="none" xmlns="http://www.w3.org/2000/svg">
<path d="M0 12.9375C0 6.83998 0 3.79124 1.88999 1.88999C3.79124 0 6.83998 0 12.9375 0H14.0625C20.1599 0 23.2087 0 25.1099 1.88999C26.9999 3.79124 26.9999 6.83998 26.9999 12.9375V14.0625C26.9999 20.1599 26.9999 23.2087 25.1099 25.1099C23.2087 26.9999 20.1599 26.9999 14.0625 26.9999H12.9375C6.83998 26.9999 3.79124 26.9999 1.88999 25.1099C0 23.2087 0 20.1599 0 14.0625V12.9375Z" fill="#2787F5"/>
<path fill-rule="evenodd" clip-rule="evenodd" d="M7.31243 8.43742H5.34369C4.78119 8.43742 4.66869 8.70742 4.66869 8.99992C4.66869 9.51742 5.34369 12.1049 7.77368 15.5249C9.40492 17.8536 11.6999 19.1249 13.7812 19.1249C15.0299 19.1249 15.1874 18.8436 15.1874 18.3599V16.5936C15.1874 16.0311 15.2999 15.9186 15.7049 15.9186C15.9974 15.9186 16.4924 16.0649 17.6624 17.1899C19.0011 18.5286 19.2149 19.1249 19.9686 19.1249H21.9374C22.4999 19.1249 22.7811 18.8436 22.6124 18.2924C22.4436 17.7299 21.8024 16.9424 20.9586 15.9861C20.5086 15.4349 19.8111 14.8612 19.6086 14.5687C19.3161 14.1862 19.3836 14.0174 19.6086 13.6912C19.6086 13.6912 22.0049 10.3162 22.2524 9.15742C22.3761 8.74117 22.2524 8.43742 21.6561 8.43742H19.6874C19.5033 8.42641 19.3205 8.47524 19.1664 8.57661C19.0123 8.67799 18.8952 8.82648 18.8324 8.99992C18.8324 8.99992 17.8199 11.4299 16.4137 13.0162C15.9524 13.4774 15.7387 13.6237 15.4912 13.6237C15.3787 13.6237 15.1874 13.4774 15.1874 13.0612V9.15742C15.1874 8.66242 15.0412 8.43742 14.6249 8.43742H11.5312C11.2162 8.43742 11.0249 8.66242 11.0249 8.88742C11.0249 9.35992 11.7449 9.47242 11.8124 10.7999V13.7024C11.8124 14.3437 11.6999 14.4562 11.4524 14.4562C10.7774 14.4562 9.15743 12.0037 8.18993 9.20242C8.00993 8.66242 7.81868 8.43742 7.31243 8.43742Z" fill="white"/>
</svg>
