<svg width="128" height="129" viewBox="0 0 128 129" fill="none" xmlns="http://www.w3.org/2000/svg">
<path d="M0 16.9936V111.866C24.2567 117.949 44.3119 122.978 67.7644 128.859L75.2938 80.91L67.7644 32.9607L34.8861 18.7674L0 16.9936Z" fill="#5EBA3F"/>
<path d="M67.765 32.9605V128.859C75.2397 126.984 120.633 115.601 128 113.754V68.3908V18.7677C119.109 19.2017 100.39 20.116 95.1218 20.3733C91.7993 21.9015 71.0995 31.4263 67.765 32.9605Z" fill="#6BCD49"/>
<path fill-rule="evenodd" clip-rule="evenodd" d="M67.7644 32.9604C59.5062 31.0149 8.24116 18.9353 0 16.9933L67.7644 0L67.765 0.00121026V0.000218829C85.4996 5.52572 91.569 7.41678 95.8594 8.75355C101.665 10.5624 104.213 11.3564 128 18.7674C123.421 19.8465 103.899 24.4465 88.115 28.1656C78.6318 30.4001 70.498 32.3166 67.765 32.9607V32.9592L67.7644 32.9604Z" fill="#C9F87C"/>
</svg>
