<svg width="402" height="491" viewBox="0 0 402 491" fill="none" xmlns="http://www.w3.org/2000/svg">
<path d="M401.544 315.534V464.345C363.497 473.886 332.039 481.774 295.253 491L283.443 415.789L295.253 340.579L346.824 318.316L401.544 315.534Z" fill="#5EBA3F"/>
<path d="M295.253 23.6929V317.781L255.62 340.13L200.771 347.218L188.961 115.596L200.771 47.7508L248.012 24.0577L295.253 23.6929Z" fill="#5374E9"/>
<path d="M200.772 47.7508V327.95L153.532 322.571L106.291 298.513C106.291 294.836 106.291 27.3676 106.291 23.6929L153.532 24.0577L200.772 47.7508Z" fill="#6C8DFF"/>
<path fill-rule="evenodd" clip-rule="evenodd" d="M224.631 41.6754C250.316 35.1354 287.315 25.7143 295.252 23.693L200.772 0.00033864V0L200.772 0.00016932L200.771 0L200.771 0.000386595L106.291 23.693L129.848 29.6914C155.542 36.2339 192.799 45.7205 200.771 47.7506L200.771 47.7509C200.771 47.7509 200.771 47.7508 200.772 47.7508C200.772 47.7508 200.772 47.7509 200.772 47.7509V47.7506C204.278 46.8579 213.366 44.5438 224.631 41.6754Z" fill="#7CAEF8"/>
<path d="M295.253 340.579V491C283.528 488.06 212.327 470.205 200.771 467.307L188.961 392.812L200.771 318.317C214.717 318.998 244.078 320.432 252.342 320.836C257.554 323.233 290.022 338.173 295.253 340.579Z" fill="#6BCD49"/>
<path fill-rule="evenodd" clip-rule="evenodd" d="M295.253 288.881V288.879C267.432 297.547 257.913 300.513 251.183 302.61C242.078 305.447 238.079 306.693 200.772 318.316C207.958 320.01 238.609 327.232 263.374 333.068C278.231 336.568 290.97 339.57 295.253 340.579L295.253 340.58C308.207 337.528 388.618 318.581 401.544 315.535L295.253 288.88L295.253 288.881Z" fill="#C9F87C"/>
<path d="M106.291 340.579L94.4808 415.789L106.291 490.999C117.72 488.133 189.267 470.191 200.772 467.306C200.772 459.033 200.772 326.588 200.772 318.316L153.532 320.045L106.291 340.579Z" fill="#F39321"/>
<path d="M-0.000106811 315.534V464.345C38.0475 473.886 69.505 481.774 106.291 491C106.291 482.638 106.291 348.939 106.291 340.579L53.1456 318.316L-0.000106811 315.534Z" fill="#F3A141"/>
<path fill-rule="evenodd" clip-rule="evenodd" d="M106.291 288.879L106.291 288.879C106.651 288.991 106.335 288.893 106.291 288.879V288.879C106.456 288.931 110.975 290.339 153.357 303.544C163.098 306.578 174.838 310.236 188.986 314.645C192.742 315.815 196.669 317.038 200.772 318.317L153.532 329.448L106.291 340.579V340.579C93.3379 337.527 12.9265 318.58 -9.15527e-05 315.534L106.291 288.879L106.291 288.879C106.288 288.878 106.286 288.878 106.286 288.878C106.286 288.878 106.288 288.878 106.291 288.879ZM106.291 288.879C106.291 288.879 106.291 288.879 106.291 288.879L106.291 288.879C106.291 288.879 106.291 288.879 106.291 288.879L106.291 288.879Z" fill="#F8C67C"/>
</svg>
