<svg width="500" height="347" viewBox="0 0 500 347" fill="none" xmlns="http://www.w3.org/2000/svg">
<path d="M1.53732 15.7959C1.53732 7.93321 7.93317 1.53734 15.7959 1.53734H484.068C491.931 1.53734 498.326 7.93324 498.326 15.7959V331.204C498.326 339.067 491.931 345.463 484.068 345.463H15.7959C7.93316 345.463 1.53732 339.067 1.53732 331.204V15.7959ZM15.7959 346.499H484.068C492.499 346.499 499.363 339.638 499.363 331.204V15.7959C499.363 7.36295 492.499 0.500892 484.068 0.500892H15.7959C7.36286 0.500892 0.500862 7.36292 0.500862 15.7959V331.204C0.500862 339.638 7.36285 346.499 15.7959 346.499Z" fill="white" stroke="#E0E0E0"/>
</svg>
